<?xml version="1.0" standalone="no"?>
<!DOCTYPE svg PUBLIC "-//W3C//DTD SVG 20010904//EN"
 "http://www.w3.org/TR/2001/REC-SVG-20010904/DTD/svg10.dtd">
<svg version="1.0" xmlns="http://www.w3.org/2000/svg"
 width="1120.000000pt" height="1120.000000pt" viewBox="0 0 1120.000000 1120.000000"
 preserveAspectRatio="xMidYMid meet">

<g transform="translate(0.000000,1120.000000) scale(0.100000,-0.100000)"
fill="#000000" stroke="none">
<path d="M5570 7822 c-14 -11 -65 -41 -115 -67 -49 -26 -97 -53 -106 -61 -8
-8 -21 -14 -27 -14 -7 0 -12 -4 -12 -10 0 -5 -7 -10 -15 -10 -8 0 -15 -4 -15
-10 0 -5 -6 -10 -14 -10 -8 0 -16 -3 -18 -7 -1 -5 -28 -28 -58 -53 -30 -25
-57 -47 -60 -50 -3 -4 -63 -57 -135 -120 -71 -63 -143 -126 -160 -141 -16 -15
-54 -49 -84 -75 -30 -27 -78 -71 -107 -99 -216 -205 -249 -235 -266 -236 -7
-1 -2 -4 12 -8 19 -5 3 -10 -60 -19 -85 -12 -456 -45 -645 -57 -55 -4 -187
-15 -293 -25 -107 -10 -200 -16 -206 -14 -22 9 -130 -37 -164 -70 -55 -51 -83
-126 -47 -126 7 0 18 -7 22 -15 5 -8 25 -15 45 -17 53 -3 38 -14 -24 -17 -28
-1 -54 -4 -57 -6 -2 -3 103 -5 235 -4 139 1 225 4 206 9 -18 4 -35 10 -37 12
-4 4 198 0 278 -5 20 -1 37 0 37 3 0 4 37 6 83 6 188 -2 500 20 532 38 11 5
22 11 25 11 3 0 19 9 35 19 151 95 216 145 315 241 136 132 265 255 490 465
91 85 224 213 297 283 l132 129 6 63 c9 82 6 91 -25 67z m-2307 -1329 c-13 -2
-33 -2 -45 0 -13 2 -3 4 22 4 25 0 35 -2 23 -4z"/>
<path d="M6075 7795 c-72 -35 -132 -76 -157 -105 -17 -21 -31 -30 -40 -25 -7
5 242 -247 553 -559 415 -415 571 -565 583 -560 9 3 16 2 16 -2 0 -11 11 -11
330 -13 292 -1 668 7 690 15 8 3 29 8 45 10 33 5 250 111 267 131 8 10 6 13
-8 14 -11 0 -28 2 -39 4 -65 9 -313 36 -455 50 -386 36 -667 67 -700 75 -20 5
-50 21 -69 34 -42 32 -237 220 -641 622 -179 178 -330 324 -335 324 -6 -1 -23
-7 -40 -15z"/>
<path d="M5806 7675 c-8 -8 -18 -15 -21 -15 -9 0 -193 -121 -222 -146 -12 -10
-32 -27 -45 -37 -21 -16 -154 -136 -218 -197 -14 -14 -57 -52 -95 -85 -98 -85
-219 -197 -228 -212 -4 -7 -12 -13 -17 -13 -5 0 -122 -112 -260 -249 -178
-177 -247 -252 -238 -258 7 -4 140 -10 295 -11 l281 -4 159 153 c87 84 268
262 402 396 135 134 247 243 250 242 3 0 188 -180 411 -399 l405 -400 160 1
c88 0 178 3 199 7 35 6 37 8 22 21 -12 10 -60 16 -164 21 -108 4 -154 10 -170
21 -12 9 -204 196 -426 417 -223 221 -411 402 -417 402 -15 0 -257 -228 -587
-555 -145 -143 -269 -262 -275 -265 -7 -3 -95 -3 -195 0 l-184 5 124 120 c67
67 177 172 243 235 66 63 179 171 250 241 72 69 170 164 220 210 176 165 380
369 368 369 -6 0 -18 -7 -27 -15z"/>
<path d="M5730 6743 c-142 -146 -176 -183 -167 -183 3 0 12 6 19 13 39 36 56
38 95 12 21 -13 58 -41 82 -62 24 -21 54 -45 67 -53 13 -8 27 -23 30 -32 3
-10 10 -18 15 -18 5 0 64 -54 129 -120 66 -66 125 -120 130 -120 6 0 10 -5 10
-10 0 -16 50 -59 82 -71 18 -7 25 -15 21 -26 -5 -12 -2 -13 13 -5 11 6 30 10
44 10 14 0 93 5 175 11 149 10 2063 38 2265 33 162 -5 314 14 375 45 27 15 77
40 110 57 l60 31 -50 6 c-27 4 -657 8 -1398 8 l-1349 1 -299 298 c-165 163
-307 298 -317 300 -11 2 -62 -43 -142 -125z"/>
<path d="M2060 6476 c-50 -14 -120 -48 -152 -74 -51 -41 -88 -87 -88 -108 0
-8 -5 -24 -10 -35 -7 -13 -7 -19 0 -19 5 0 10 -18 10 -40 0 -22 5 -40 10 -40
6 0 10 6 10 13 0 6 7 -2 16 -19 8 -18 24 -41 34 -52 10 -11 16 -23 13 -26 -4
-3 1 -6 10 -6 8 0 24 -11 35 -25 11 -14 27 -25 36 -25 9 0 16 -4 16 -8 0 -5
17 -17 38 -27 31 -15 64 -18 205 -20 93 0 171 3 174 7 2 5 11 4 18 -2 8 -7 20
-8 26 -4 7 4 26 8 42 10 16 1 32 6 36 11 7 10 101 5 101 -6 0 -3 18 -5 40 -3
22 2 40 8 40 12 0 5 66 9 148 10 81 1 179 5 217 9 43 5 79 4 92 -2 15 -7 32
-6 54 3 62 26 199 6 199 -29 0 -31 -12 -61 -25 -61 -14 0 -23 -37 -29 -109 -2
-33 -8 -47 -22 -51 -14 -5 -12 -8 13 -13 73 -14 153 -112 196 -236 28 -81 35
-297 13 -411 -27 -142 -101 -266 -190 -313 -34 -18 -57 -22 -136 -22 -85 0
-100 3 -144 28 -27 15 -52 27 -57 27 -5 0 -9 -70 -9 -155 0 -85 2 -155 5 -155
2 0 30 14 60 30 30 17 61 30 68 30 6 0 23 9 37 20 30 24 40 25 40 5 0 -8 7
-15 16 -15 10 0 14 -6 11 -14 -4 -11 3 -16 26 -18 24 -2 33 -8 35 -24 3 -24
13 -26 130 -27 73 -1 112 8 174 39 14 8 33 14 42 14 9 0 16 7 16 15 0 8 7 15
16 15 9 0 39 13 68 29 43 23 55 26 69 16 9 -7 17 -17 17 -24 0 -6 11 -17 25
-23 14 -6 25 -17 25 -25 0 -7 8 -13 18 -13 10 0 23 -5 29 -11 31 -31 156 -28
300 7 107 26 116 26 170 13 70 -17 253 -18 308 -2 76 22 140 32 151 22 6 -5
15 -4 21 2 6 6 17 8 23 4 30 -18 137 -12 223 12 66 18 99 23 130 18 23 -4 80
-8 127 -8 121 -2 175 26 328 171 7 6 20 12 29 12 8 0 13 6 11 13 -3 8 -36 14
-99 17 l-94 5 -3 625 c-1 354 -6 628 -11 633 -11 11 -122 -24 -173 -56 -44
-26 -112 -89 -134 -122 -8 -13 -18 -48 -21 -77 -3 -29 -10 -56 -15 -59 -5 -3
9 -18 32 -34 28 -19 50 -48 73 -94 l32 -66 5 -340 c5 -294 8 -345 23 -379 9
-21 17 -40 17 -43 0 -2 -46 -2 -102 -1 l-102 3 -8 33 c-5 17 -11 32 -14 32 -4
0 -27 -15 -53 -34 -142 -104 -324 -80 -393 53 -24 47 -28 64 -28 141 0 80 3
94 33 151 57 111 155 172 337 208 l85 17 0 70 c-1 111 -40 163 -133 172 -67 6
-139 -12 -207 -53 l-55 -34 0 44 c0 24 -5 45 -11 47 -5 2 9 15 31 28 90 55 90
60 2 34 -46 -13 -112 -37 -147 -54 -56 -27 -73 -30 -159 -30 l-96 0 0 -27 c0
-16 3 -58 7 -96 5 -55 8 -65 19 -56 11 9 14 7 14 -7 0 -16 2 -17 10 -4 7 11
10 11 10 2 0 -7 5 -10 10 -7 6 3 10 2 10 -3 0 -5 8 -12 18 -16 9 -3 31 -11 47
-17 17 -6 57 -16 90 -22 43 -9 61 -17 63 -29 2 -12 -28 -50 -84 -105 -48 -49
-100 -105 -114 -125 -15 -21 -30 -35 -32 -32 -3 3 -9 -12 -13 -32 -4 -25 -9
-33 -15 -25 -15 25 -21 -8 -7 -41 25 -57 51 -73 123 -73 64 0 64 0 70 -31 3
-17 4 -44 2 -60 -3 -26 -9 -31 -53 -42 -30 -8 -88 -12 -145 -10 -85 4 -100 7
-138 33 -24 15 -55 49 -70 74 l-27 46 -3 352 -3 351 -79 7 -80 7 4 52 3 51 76
3 77 3 0 116 0 116 -47 -7 c-25 -3 -70 -17 -99 -30 -29 -13 -56 -21 -60 -18
-4 4 -4 2 -1 -4 7 -12 -34 -54 -70 -73 -31 -16 -40 -14 -17 4 17 13 14 14 -31
9 -60 -6 -105 17 -130 67 -21 39 -17 166 6 180 20 13 116 11 142 -3 12 -6 28
-20 36 -31 11 -15 15 -16 22 -6 7 11 9 11 9 -1 0 -13 1 -13 10 0 9 13 10 13
10 0 0 -13 1 -13 10 0 6 10 10 11 10 3 0 -17 125 -16 238 1 46 6 97 11 115 9
39 -4 128 -5 142 -3 6 2 98 2 205 2 238 0 335 16 402 66 24 18 69 50 101 71
38 25 55 41 47 46 -7 4 -645 10 -1418 13 l-1406 5 -40 37 c-119 106 -215 171
-253 169 -10 0 -38 -6 -63 -13z m1880 -1213 l0 -488 -105 3 -105 3 0 469 c0
258 -3 475 -6 484 -5 14 8 16 105 16 l111 0 0 -487z"/>
<path d="M3470 6480 c37 -7 392 -11 375 -5 -5 2 -100 5 -210 7 -110 2 -184 1
-165 -2z"/>
<path d="M10218 6055 c-52 -19 -123 -69 -153 -109 -25 -32 -59 -126 -47 -126
4 0 0 -5 -8 -10 -11 -7 2 -10 43 -10 72 0 97 -12 97 -47 0 -24 3 -25 35 -20
20 3 63 23 98 44 l62 38 -35 5 c-117 20 -144 116 -64 228 9 12 15 22 13 21 -2
0 -21 -7 -41 -14z"/>
<path d="M10320 6045 c0 -3 11 -10 24 -14 23 -9 36 -48 36 -110 0 -25 0 -24
-35 9 l-35 34 0 -56 c0 -65 10 -77 45 -54 14 9 25 13 25 9 1 -5 7 3 15 17 17
29 19 78 5 114 -10 27 -80 72 -80 51z"/>
<path d="M1323 6026 c-23 -8 -44 -12 -47 -9 -2 2 -12 0 -23 -5 -10 -6 -38 -15
-63 -22 -94 -24 -182 -55 -198 -71 -10 -9 -29 -19 -43 -22 -61 -15 -309 -229
-309 -267 0 -5 -3 -10 -7 -10 -5 0 -19 -17 -33 -37 -14 -20 -31 -43 -38 -50
-11 -10 -11 -13 -1 -13 7 0 0 -13 -15 -29 -20 -21 -26 -35 -21 -50 5 -15 3
-19 -8 -16 -15 6 -37 -33 -37 -66 0 -11 -7 -27 -15 -35 -10 -10 -15 -35 -15
-70 0 -30 -4 -54 -10 -54 -5 0 -10 -9 -10 -20 0 -12 -7 -20 -16 -20 -14 0 -16
-9 -12 -62 3 -35 3 -55 1 -45 -9 34 -33 -2 -33 -49 0 -24 -4 -44 -10 -44 -6 0
-10 -47 -10 -120 0 -100 -2 -120 -15 -120 -11 0 -15 -11 -15 -40 l0 -40 -64 0
c-48 0 -65 -4 -70 -15 -4 -12 -25 -15 -96 -15 l-90 0 0 -2305 0 -2305 2145 0
2145 0 0 40 c0 29 4 40 15 40 11 0 15 11 15 40 0 22 -4 40 -10 40 -5 0 -10 9
-10 19 0 11 -4 23 -10 26 -15 9 -12 35 4 35 8 0 17 -6 19 -12 4 -9 6 -7 6 3 1
12 -12 18 -56 22 -36 4 -60 12 -65 21 -5 9 -16 16 -23 16 -9 0 -15 9 -15 21 0
12 -8 28 -17 35 -17 13 -17 15 0 28 9 7 17 16 17 20 0 10 -48 7 -55 -4 -14
-23 -25 -7 -25 40 l0 50 -40 0 -40 0 0 40 0 40 -40 0 c-29 0 -40 -4 -40 -15 0
-11 -11 -15 -40 -15 -27 0 -40 4 -40 14 0 8 16 16 40 20 26 4 40 11 40 21 0 8
-7 15 -15 15 -8 0 -15 5 -15 10 0 6 7 10 15 10 8 0 15 5 15 11 0 8 -13 9 -40
5 l-40 -6 0 45 0 45 40 0 40 0 0 55 0 55 -40 0 -40 0 0 -55 0 -55 -40 0 -40 0
0 120 0 120 -40 0 c-29 0 -40 4 -40 15 0 11 11 15 40 15 22 0 40 5 40 10 0 6
-18 10 -40 10 l-40 0 0 40 0 40 -80 0 c-64 0 -80 3 -80 15 0 11 11 15 40 15
l40 0 0 40 0 40 -51 0 c-43 0 -54 4 -71 25 -25 32 -36 32 -41 -2 -3 -20 -4
-15 -6 15 -1 40 -3 42 -30 42 -28 0 -30 -3 -33 -42 l-3 -43 -45 -2 c-25 -1
-37 1 -27 4 12 3 17 15 17 44 0 21 5 39 10 39 6 0 10 18 10 40 l0 40 57 0 c52
0 55 1 37 14 -18 14 -18 15 -1 21 23 9 22 22 -3 35 -14 8 -26 8 -40 0 -14 -7
-20 -7 -20 0 0 6 -24 10 -55 10 l-55 0 0 -40 c0 -22 -4 -40 -10 -40 -5 0 -10
18 -10 40 0 29 -4 40 -15 40 -9 0 -15 9 -15 25 0 23 -4 25 -40 25 -40 0 -40 0
-40 38 0 21 5 43 11 49 18 18 -14 43 -55 43 -20 0 -36 5 -36 10 0 6 18 10 40
10 28 0 40 4 40 14 0 10 -22 16 -80 21 l-80 7 0 79 c0 64 3 79 15 79 18 0 20
16 3 26 -6 4 -14 2 -16 -4 -2 -7 -16 -12 -30 -13 -15 0 -21 -3 -14 -6 15 -6
17 -163 2 -163 -5 0 -10 18 -10 40 0 29 -4 40 -15 40 -8 0 -15 7 -15 15 0 11
-11 15 -40 15 -22 0 -40 5 -40 10 0 6 18 10 40 10 29 0 40 4 40 15 0 11 -11
15 -40 15 l-40 0 0 40 c0 29 4 40 15 40 11 0 15 11 15 40 l0 40 -70 0 c-66 0
-92 12 -55 26 8 4 15 17 15 30 0 19 -5 24 -24 24 -13 0 -26 -7 -30 -15 -7 -19
-26 -19 -26 0 0 8 7 15 15 15 11 0 15 11 15 40 0 29 -4 40 -15 40 -9 0 -15 9
-15 25 0 23 -4 25 -40 25 -28 0 -40 4 -40 14 0 10 -14 16 -42 19 l-43 4 43 1
c30 1 42 6 42 17 0 11 -11 15 -40 15 -22 0 -40 5 -40 10 0 6 18 10 40 10 22 0
40 5 40 10 0 6 -18 10 -40 10 l-40 0 0 40 c0 29 4 40 15 40 11 0 15 11 15 40
0 36 3 40 25 40 16 0 25 6 25 15 0 11 -11 15 -40 15 -39 0 -40 -1 -40 -35 0
-39 -28 -75 -60 -75 -17 0 -20 -7 -20 -40 0 -36 3 -40 25 -40 31 0 33 -18 2
-29 -25 -10 -34 8 -36 72 -1 30 -5 37 -21 37 -17 0 -20 -7 -20 -40 0 -22 -4
-40 -9 -40 -12 0 -21 103 -21 236 l0 114 -39 0 -40 0 4 -52 c1 -29 1 -43 -2
-31 -4 19 -11 23 -43 23 -22 0 -40 -5 -43 -12 -3 -9 -10 -8 -26 6 -28 25 -27
36 4 36 22 0 25 4 25 39 0 40 0 40 43 44 l42 4 -42 1 c-40 2 -43 4 -43 31 0
28 3 30 43 34 l42 4 -42 1 c-31 1 -43 6 -43 17 0 8 -9 15 -20 15 -11 0 -23 -7
-26 -15 -9 -21 -27 -19 -42 6 -10 15 -11 24 -3 32 8 8 11 6 11 -6 0 -21 26
-23 34 -2 3 8 15 15 26 15 13 0 20 7 20 20 0 13 7 20 19 20 10 0 21 7 25 15 3
8 12 15 21 15 8 0 15 7 15 15 0 8 7 15 15 15 11 0 15 -11 15 -40 0 -22 5 -40
10 -40 6 0 10 18 10 40 l0 40 55 0 c42 0 55 3 55 15 0 11 11 15 40 15 22 0 40
5 40 11 0 7 29 10 90 7 50 -1 86 -1 80 0 -5 2 -10 14 -10 27 0 21 5 23 75 30
41 3 78 4 84 1 5 -3 25 1 44 9 27 11 37 12 41 2 3 -8 13 -3 30 16 26 28 54 35
73 16 6 -6 17 -8 23 -4 7 4 42 8 79 10 36 1 77 8 90 16 18 11 25 11 28 2 7
-18 24 -16 39 5 13 16 13 16 14 0 0 -10 3 -18 8 -19 4 -1 26 -2 50 -3 35 -2
42 1 42 16 0 18 5 19 69 23 44 3 91 25 92 44 0 11 3 9 9 -6 11 -26 30 -31 30
-8 0 20 17 19 29 -2 10 -17 10 -17 11 0 0 21 16 22 36 2 20 -19 44 -19 44 0 0
18 76 22 82 4 3 -9 9 -9 23 -1 57 31 239 56 323 44 51 -7 66 -6 85 7 12 9 41
16 64 16 27 0 53 8 72 23 17 12 42 22 56 22 14 0 25 5 25 11 0 5 13 15 30 20
16 6 30 14 30 18 0 4 15 13 34 19 19 7 37 19 40 27 3 8 11 15 19 15 7 0 28 16
45 36 18 20 32 34 32 31 0 -3 26 20 59 52 32 31 67 61 77 68 15 10 -1 12 -89
12 -60 -1 -110 1 -112 3 -2 2 -7 96 -10 210 l-7 207 107 3 c58 2 116 0 127 -5
11 -4 70 -8 131 -10 62 -1 117 -6 123 -11 12 -11 6 -56 -7 -56 -5 0 -14 -11
-19 -25 -5 -14 -13 -25 -18 -25 -5 0 -30 -42 -55 -92 -37 -74 -47 -106 -51
-158 -3 -36 -5 -65 -6 -65 -2 0 -12 -92 -12 -114 0 -13 7 -28 16 -33 9 -5 16
-14 16 -21 0 -7 14 -27 31 -45 l30 -34 74 7 c48 5 72 11 68 18 -3 6 -1 7 5 3
6 -4 21 -2 33 5 15 8 28 8 43 1 21 -11 62 -17 180 -28 43 -4 61 -2 68 8 7 10
11 10 15 1 6 -16 43 -17 43 -2 0 8 12 10 35 6 24 -4 40 -1 51 10 11 12 18 13
27 4 16 -16 74 -14 81 4 7 21 43 19 55 -2 6 -10 11 -12 11 -5 0 15 52 16 68 0
8 -8 12 -9 12 -1 0 26 155 42 220 23 84 -25 222 -9 310 35 80 40 108 43 150
14 60 -41 131 -31 260 36 72 37 95 39 109 9 7 -16 17 -24 26 -21 7 3 19 0 25
-8 15 -18 119 -11 166 11 38 18 105 12 125 -12 8 -10 15 -11 25 -3 9 7 19 7
34 -1 33 -17 199 2 239 28 31 21 190 22 266 2 44 -11 61 -10 125 4 40 9 110
35 154 56 44 22 83 35 86 31 3 -5 29 -20 58 -35 45 -23 63 -26 126 -24 41 2
72 6 69 11 -2 4 6 7 19 7 13 0 29 5 35 11 11 11 41 13 161 10 69 -2 172 22
172 40 0 15 52 -5 63 -25 7 -13 24 -22 42 -24 56 -5 120 -1 129 9 6 5 16 9 22
9 21 0 106 61 159 115 l50 50 -68 6 c-51 4 -73 11 -90 27 -33 34 -10 47 38 21
28 -14 52 -19 78 -15 110 13 99 116 -17 165 -24 11 -51 30 -60 42 -20 29 -21
99 -1 125 8 10 15 22 15 25 0 10 -40 1 -105 -22 -33 -12 -80 -22 -105 -23
l-45 -1 1 -183 c2 -181 1 -183 -20 -180 -20 3 -21 8 -24 186 l-2 184 -50 -4
c-43 -3 -50 -1 -50 16 0 14 -5 17 -22 13 -13 -3 -40 -9 -61 -13 l-39 -7 3
-183 c2 -101 1 -186 -2 -189 -3 -3 -44 53 -90 125 -46 71 -86 129 -89 130 -3
0 -4 -61 -2 -136 l3 -136 -23 4 c-23 3 -23 4 -29 203 -3 110 -7 201 -7 203 -3
6 -62 -10 -93 -25 -17 -8 -41 -13 -55 -10 -13 2 -24 1 -24 -4 0 -5 -35 -7 -77
-6 l-78 2 0 -70 c0 -55 3 -70 15 -71 8 -1 36 -2 63 -2 40 -2 47 -5 47 -22 0
-18 -7 -20 -65 -20 l-65 0 0 -64 c0 -41 5 -68 13 -73 6 -4 44 -10 82 -13 53
-4 70 -9 70 -20 0 -12 -19 -16 -102 -18 l-103 -3 0 195 c0 107 -3 201 -6 209
-6 16 -13 15 -128 -19 -26 -8 -54 -14 -61 -14 -9 0 -5 -46 15 -182 15 -101 26
-186 23 -190 -21 -37 -53 47 -69 180 -3 26 -8 54 -11 62 -4 14 -50 -114 -73
-208 -6 -24 -16 -42 -22 -40 -6 2 -29 62 -52 134 l-41 129 -20 -130 c-17 -110
-23 -130 -39 -133 -17 -4 -18 1 -12 75 4 43 12 105 17 138 5 33 11 92 12 130
l2 70 -60 -3 c-33 -2 -65 -8 -71 -13 -6 -5 -14 -6 -17 -2 -4 3 -7 -3 -7 -14 0
-20 -4 -21 -60 -16 l-60 6 0 -187 c0 -179 -1 -186 -20 -186 -19 0 -20 7 -20
185 l0 185 -49 0 c-35 0 -51 4 -55 16 -4 12 -14 14 -38 9 -42 -8 -91 -27 -98
-36 -3 -5 -25 -3 -50 2 -54 12 -97 -3 -111 -38 -15 -40 9 -74 71 -104 71 -34
91 -58 97 -112 9 -80 -41 -127 -135 -127 -47 0 -57 4 -85 32 -27 27 -29 33
-15 36 10 2 28 -4 40 -12 29 -20 97 -21 126 0 16 11 22 25 22 53 0 43 -21 67
-87 100 -52 26 -83 65 -83 105 0 36 29 84 62 103 21 13 17 14 -40 9 -35 -3
-69 -9 -75 -13 -16 -10 -46 -16 -84 -17 -17 -1 -31 -5 -30 -11 1 -6 -35 -12
-83 -15 l-85 -5 -3 -52 c-4 -71 10 -96 49 -88 42 9 89 -3 89 -23 0 -14 -11
-17 -62 -17 l-63 0 -3 -78 -3 -78 78 2 c73 2 78 1 81 -19 3 -21 0 -22 -102
-22 l-106 0 0 203 c-1 227 -3 237 -64 237 -20 0 -36 5 -36 11 0 6 19 9 48 7
36 -2 47 -7 46 -19 -1 -11 5 -15 16 -12 12 3 16 11 13 24 -7 24 13 25 26 2 10
-17 10 -17 11 0 0 9 1 17 3 17 1 1 74 3 162 6 88 3 180 10 205 16 25 5 200 11
390 13 190 2 345 4 345 5 0 9 77 14 270 16 127 1 259 5 293 8 80 8 568 27 802
31 250 5 640 23 740 34 115 13 181 39 350 135 l65 37 -155 -5 c-192 -6 -923
-22 -1675 -36 -313 -6 -862 -17 -1220 -25 -357 -8 -949 -19 -1315 -25 -1616
-24 -1986 -31 -2650 -45 -388 -9 -941 -14 -1229 -13 -521 3 -524 3 -531 24 -8
21 -6 21 248 28 142 4 525 12 852 17 327 5 603 10 613 10 27 0 20 8 -15 17
l-32 8 21 21 21 21 -21 6 c-12 3 -61 6 -109 6 -77 0 -88 2 -88 18 0 9 -1 289
-1 622 0 333 -4 616 -8 630 -4 14 -15 26 -25 28 -18 4 -156 -36 -166 -47 -8
-9 -43 -7 -60 3 -11 7 -10 4 2 -10 50 -57 53 -77 58 -459 5 -348 6 -361 27
-402 l23 -43 -111 0 -111 0 -11 30 c-13 34 -27 38 -50 12 -26 -28 -105 -64
-153 -70 -160 -18 -261 72 -272 241 -11 182 103 303 338 360 47 11 91 25 98
30 15 11 16 117 2 168 -6 19 -22 46 -36 60 -23 21 -35 24 -108 24 -76 0 -88
-3 -162 -40 -43 -22 -82 -41 -85 -43 -3 -1 -6 19 -7 45 -2 47 -1 49 49 86 l52
37 -52 0 c-29 0 -50 -4 -47 -9 4 -5 -4 -7 -16 -4 -28 7 -68 47 -68 68 0 27
-78 102 -133 126 -43 20 -69 24 -147 24 -85 0 -101 -3 -154 -29 -72 -35 -131
-93 -169 -163 -35 -66 -60 -178 -48 -218 5 -17 10 -23 10 -15 1 11 6 9 19 -7
18 -23 106 -73 128 -73 8 0 14 4 14 10 0 5 7 7 15 4 17 -7 20 -24 5 -24 -5 0
-19 -9 -30 -20 -15 -15 -16 -20 -6 -20 8 0 16 4 18 9 2 5 21 12 43 16 39 6 39
6 15 -9 l-25 -15 33 -1 c30 0 32 -2 32 -39 0 -38 30 -91 52 -91 5 0 28 -14 49
-31 29 -23 39 -27 39 -15 0 11 9 16 33 16 26 -1 29 -2 15 -11 -9 -5 -15 -16
-12 -23 3 -8 -7 -21 -25 -32 -17 -10 -34 -26 -37 -36 -3 -9 -18 -28 -33 -40
-15 -13 -26 -29 -23 -36 2 -7 -3 -15 -12 -18 -9 -3 -16 -15 -16 -25 0 -11 -7
-19 -17 -19 -15 0 -15 -2 -4 -9 11 -7 10 -10 -5 -13 -17 -4 -16 -6 6 -16 14
-6 19 -11 12 -11 -7 -1 -21 3 -31 8 -11 6 -23 6 -32 0 -12 -8 -12 -9 1 -7 8 1
24 -3 35 -9 59 -33 182 -24 274 21 28 13 53 21 55 18 2 -4 6 -25 10 -47 4 -22
9 -52 12 -66 4 -23 0 -28 -43 -47 -151 -64 -397 -61 -547 7 -137 62 -246 200
-293 372 -22 81 -25 335 -5 419 19 77 93 227 138 278 39 46 110 101 187 145
26 16 47 30 47 32 0 3 -1 5 -2 4 -2 0 -22 -6 -45 -13z m-886 -898 c-3 -8 -6
-5 -6 6 -1 11 2 17 5 13 3 -3 4 -12 1 -19z m-197 -553 c0 -8 7 -15 16 -15 9 0
14 -5 12 -12 -6 -18 -28 -21 -28 -4 0 9 -7 16 -15 16 -16 0 -20 12 -8 23 11
12 23 8 23 -8z m80 -80 c0 -8 7 -15 15 -15 11 0 15 -11 15 -40 0 -22 5 -40 10
-40 6 0 10 -18 10 -40 0 -22 -4 -40 -10 -40 -5 0 -10 18 -10 40 0 29 -4 40
-15 40 -11 0 -15 11 -15 40 0 29 -4 40 -15 40 -16 0 -20 12 -8 23 11 12 23 8
23 -8z m-160 -31 c0 -9 -5 -14 -12 -12 -18 6 -21 28 -4 28 9 0 16 -7 16 -16z
m66 -6 c-9 -12 -16 -30 -16 -40 0 -13 -8 -18 -26 -18 -24 0 -24 1 -10 22 9 12
16 30 16 40 0 13 8 18 26 18 24 0 24 -1 10 -22z m-118 -46 c2 -7 -3 -12 -12
-12 -9 0 -16 7 -16 16 0 17 22 14 28 -4z m295 -262 c-4 -17 -8 -18 -20 -8 -13
10 -13 13 4 19 10 4 19 8 20 8 0 1 -1 -8 -4 -19z m5881 -44 c10 4 18 0 22 -10
4 -11 19 -16 47 -16 22 0 37 -3 34 -7 -11 -10 -87 -9 -91 2 -3 6 -9 4 -14 -4
-7 -10 -11 -10 -17 -1 -7 11 -40 -82 -116 -330 -17 -58 -33 -100 -35 -95 -2 6
-35 102 -73 215 -65 191 -71 205 -93 202 -18 -2 -20 0 -11 9 10 10 21 10 48 2
31 -10 34 -9 24 3 -9 11 -7 14 10 14 11 0 21 -2 21 -4 0 -2 3 -11 6 -19 3 -9
-1 -17 -8 -19 -11 -2 -3 -34 31 -131 l44 -129 47 135 c26 74 50 139 54 145 4
6 -17 8 -57 6 -51 -2 -56 -2 -27 6 19 4 53 15 75 23 25 10 44 12 51 6 6 -5 19
-7 28 -3z m-938 -46 l24 0 0 -220 c0 -212 -1 -220 -20 -220 -14 0 -21 9 -25
33 -5 34 -12 434 -7 417 2 -5 15 -10 28 -10z m490 -215 c-3 -115 -5 -212 -5
-215 -1 -3 -16 20 -34 50 -39 64 -157 240 -161 240 -2 0 -1 -67 2 -150 5 -149
4 -150 -17 -150 -12 0 -24 6 -26 13 -6 18 -11 437 -5 437 3 0 27 -33 53 -74
27 -41 71 -105 98 -142 l49 -68 1 114 c1 63 1 129 1 146 -1 30 0 31 24 20 l24
-11 -4 -210z m24 225 c0 -5 -4 -10 -9 -10 -6 0 -13 5 -16 10 -3 6 1 10 9 10 9
0 16 -4 16 -10z m55 -9 c-3 -6 -16 -11 -28 -11 -21 0 -21 1 3 13 27 15 36 14
25 -2z m163 -6 c-3 -3 -9 2 -12 12 -6 14 -5 15 5 6 7 -7 10 -15 7 -18z m-2200
-211 c2 -111 -1 -178 -9 -197 -25 -59 -110 -90 -183 -65 -31 10 -45 23 -63 57
-21 41 -23 56 -23 208 l0 163 25 0 25 0 0 -164 c0 -153 1 -165 23 -197 19 -28
30 -35 63 -37 32 -2 44 2 64 23 24 26 25 32 28 198 3 168 8 193 37 184 6 -2
11 -71 13 -173z m421 150 c45 -37 56 -88 31 -140 -11 -22 -33 -47 -48 -55 -15
-7 -28 -14 -30 -15 -1 0 23 -41 53 -90 44 -70 53 -90 41 -96 -25 -14 -41 1
-100 97 -32 52 -64 95 -72 95 -11 0 -14 -20 -14 -100 l0 -100 -25 0 -25 0 -2
163 c-1 89 -2 186 -3 215 l-3 52 83 0 c75 0 87 -3 114 -26z m-930 -5 c36 -13
37 -16 15 -40 -15 -17 -18 -17 -40 -2 -30 19 -83 12 -124 -17 -33 -24 -60 -97
-60 -164 0 -47 28 -113 58 -140 29 -26 102 -32 141 -13 29 15 32 14 41 -4 9
-16 7 -21 -15 -29 -171 -65 -306 69 -265 264 25 120 135 184 249 145z m-910
-34 c19 -19 6 -50 -17 -39 -9 4 -39 8 -67 9 -43 0 -51 -3 -65 -27 -22 -41 0
-76 71 -110 77 -37 109 -76 109 -137 0 -39 -5 -52 -27 -73 -16 -14 -38 -31
-50 -37 -61 -31 -197 9 -179 54 5 15 9 15 40 -4 68 -42 149 -15 162 56 7 37
-15 61 -98 102 -59 30 -78 57 -78 117 0 75 59 119 145 108 22 -3 46 -11 54
-19z m451 5 c0 -18 -7 -20 -85 -20 l-85 0 0 -70 0 -70 70 0 c54 0 72 -4 77
-15 9 -24 -2 -29 -75 -29 l-67 -1 -3 -82 -3 -83 91 0 c83 0 90 -1 90 -20 0
-19 -7 -20 -115 -20 l-115 0 -1 173 c0 94 -2 191 -5 215 l-6 42 116 0 c109 0
116 -1 116 -20z m-1295 -270 c3 -5 1 -10 -4 -10 -6 0 -11 5 -11 10 0 6 2 10 4
10 3 0 8 -4 11 -10z m-15 -74 c0 -8 4 -16 8 -18 4 -1 5 -16 1 -33 l-7 -30 -1
33 c-1 31 -3 32 -41 32 -29 0 -40 4 -40 15 0 11 11 15 40 15 28 0 40 -4 40
-14z m-141 -63 c-2 -85 -17 -106 -18 -25 -1 42 3 72 9 72 6 0 10 -21 9 -47z
m201 37 c0 -5 -2 -10 -4 -10 -3 0 -8 5 -11 10 -3 6 -1 10 4 10 6 0 11 -4 11
-10z m-154 -92 c-3 -13 -6 -30 -6 -38 0 -13 -1 -13 -10 0 -16 24 -12 60 6 60
12 0 15 -6 10 -22z m-146 -68 c0 -5 -6 -10 -14 -10 -8 0 -18 5 -21 10 -3 6 3
10 14 10 12 0 21 -4 21 -10z m160 6 c0 -9 -40 -13 -46 -5 -3 5 6 9 20 9 14 0
26 -2 26 -4z m-160 -66 c0 -5 -9 -10 -21 -10 -11 0 -17 5 -14 10 3 6 13 10 21
10 8 0 14 -4 14 -10z m125 0 c4 -6 -6 -10 -22 -9 -25 0 -26 1 -8 9 11 5 21 9
22 9 1 1 5 -3 8 -9z m545 -406 c0 -2 -7 -4 -15 -4 -8 0 -15 4 -15 10 0 5 7 7
15 4 8 -4 15 -8 15 -10z m128 -26 c-8 -12 -23 -27 -34 -32 -10 -6 -22 -15 -26
-21 -4 -5 -10 -6 -15 -2 -10 11 9 40 35 52 12 5 22 13 22 17 0 5 7 8 16 8 15
0 15 -2 2 -22z m-106 -70 c-9 -9 -15 -9 -24 0 -9 9 -7 12 12 12 19 0 21 -3 12
-12z m-40 -40 c-9 -9 -12 -7 -12 12 0 19 3 21 12 12 9 -9 9 -15 0 -24z m45
-24 c8 -21 -13 -42 -28 -27 -13 13 -5 43 11 43 6 0 13 -7 17 -16z m-267 -14
c0 -5 -7 -10 -15 -10 -8 0 -15 5 -15 10 0 6 7 10 15 10 8 0 15 -4 15 -10z
m188 -2 c-3 -7 -11 -13 -18 -13 -7 0 -15 6 -17 13 -3 7 4 12 17 12 13 0 20 -5
18 -12z m-28 -81 c0 -4 -7 -2 -15 7 -8 8 -15 21 -15 28 1 14 30 -20 30 -35z
m65 33 c3 -6 0 -17 -8 -25 -13 -13 -16 -13 -21 1 -10 27 15 47 29 24z m61 -17
c-10 -10 -19 5 -10 18 6 11 8 11 12 0 2 -7 1 -15 -2 -18z m224 -123 c0 -22 -4
-40 -10 -40 -5 0 -10 18 -10 40 0 22 5 40 10 40 6 0 10 -18 10 -40z m-140 -50
c0 -5 -4 -10 -9 -10 -5 0 -24 -3 -42 -6 l-34 -5 25 15 c29 18 60 21 60 6z m0
-45 c0 -9 -6 -12 -15 -9 -8 4 -15 10 -15 15 0 5 7 9 15 9 8 0 15 -7 15 -15z
m270 -355 c0 -5 -7 -10 -15 -10 -8 0 -15 5 -15 10 0 6 7 10 15 10 8 0 15 -4
15 -10z m210 -5 c0 -11 -11 -15 -40 -15 -29 0 -40 4 -40 15 0 11 11 15 40 15
29 0 40 -4 40 -15z m7 -287 c-2 -13 -4 -3 -4 22 0 25 2 35 4 23 2 -13 2 -33 0
-45z m70 0 c-2 -13 -4 -3 -4 22 0 25 2 35 4 23 2 -13 2 -33 0 -45z m53 22 c0
-22 -4 -40 -10 -40 -5 0 -10 18 -10 40 0 22 5 40 10 40 6 0 10 -18 10 -40z
m80 -240 c0 -22 -4 -40 -10 -40 -5 0 -10 18 -10 40 0 22 5 40 10 40 6 0 10
-18 10 -40z m-38 -172 c-9 -9 -12 -7 -12 12 0 19 3 21 12 12 9 -9 9 -15 0 -24z
m570 -83 c0 -5 -5 -11 -11 -13 -6 -2 -11 4 -11 13 0 9 5 15 11 13 6 -2 11 -8
11 -13z m-39 -262 c-13 -2 -33 -2 -45 0 -13 2 -3 4 22 4 25 0 35 -2 23 -4z
m127 -167 c0 -2 -7 -9 -15 -16 -12 -10 -15 -10 -15 4 0 9 7 16 15 16 8 0 15
-2 15 -4z m180 -36 c0 -22 -4 -40 -10 -40 -5 0 -10 18 -10 40 0 22 5 40 10 40
6 0 10 -18 10 -40z m220 -330 c0 -5 -7 -10 -15 -10 -8 0 -15 5 -15 10 0 6 7
10 15 10 8 0 15 -4 15 -10z m235 -260 c3 -5 -1 -10 -9 -10 -9 0 -16 5 -16 10
0 6 4 10 9 10 6 0 13 -4 16 -10z m80 -80 c3 -5 -1 -10 -9 -10 -9 0 -16 -7 -16
-16 0 -9 -5 -14 -12 -12 -18 6 -21 28 -4 28 9 0 16 5 16 10 0 6 4 10 9 10 6 0
13 -4 16 -10z m75 -29 c0 -11 5 -23 10 -26 15 -9 12 -35 -4 -35 -8 0 -17 7
-20 16 -9 25 -7 64 4 64 6 0 10 -9 10 -19z m-154 -46 c4 -8 17 -15 30 -15 15
0 24 -6 24 -15 0 -11 -11 -15 -40 -15 -38 0 -40 2 -40 30 0 31 16 41 26 15z"/>
<path d="M4162 3903 l3 -78 40 2 c75 5 110 79 60 128 -18 19 -35 25 -65 25
l-41 0 3 -77z"/>
<path d="M10246 6008 c-9 -13 -16 -43 -16 -71 0 -38 5 -53 26 -74 14 -14 27
-24 28 -22 2 2 0 43 -3 92 -3 48 -3 87 0 87 7 0 33 -27 58 -60 26 -33 37 -20
16 20 -26 50 -83 65 -109 28z"/>
<path d="M6271 6003 c-36 -7 -133 -76 -174 -124 -75 -87 -52 -176 53 -210 73
-23 140 -53 140 -63 0 -5 10 -20 22 -34 22 -22 23 -33 26 -205 2 -100 -1 -271
-5 -380 -4 -110 -5 -201 -1 -203 4 -2 6 -12 5 -22 0 -9 7 -40 18 -68 16 -47
22 -53 67 -69 107 -38 240 0 363 105 33 29 70 57 83 63 41 19 22 26 -80 29
l-103 3 -5 514 -5 514 -150 -2 c-83 -1 -158 1 -168 4 -14 6 -17 20 -17 81 0
81 1 80 -69 67z"/>
<path d="M9699 5981 c-66 -26 -117 -68 -141 -115 -11 -23 -33 -57 -48 -76 -20
-25 -30 -53 -35 -93 -4 -31 -9 -57 -12 -57 -3 0 -17 8 -31 18 -86 60 -240 56
-304 -8 -35 -36 -39 -99 -8 -130 11 -11 24 -20 29 -20 5 0 18 -3 28 -6 15 -5
15 -4 3 5 -9 7 -10 11 -3 11 6 0 15 -4 18 -10 4 -6 44 -8 98 -6 90 4 92 4 118
-24 15 -16 25 -31 22 -34 -3 -3 2 -12 11 -21 9 -9 17 -23 17 -31 3 -29 4 -33
17 -45 16 -17 15 -32 -2 -26 -11 4 -9 -7 7 -41 18 -38 22 -66 22 -147 0 -55
-4 -121 -9 -148 -7 -37 -5 -56 9 -90 62 -150 121 -197 246 -197 83 0 206 45
249 90 3 3 26 19 51 35 91 58 87 55 49 47 -53 -11 -150 -7 -192 7 -43 14 -82
51 -112 106 -20 38 -21 55 -24 367 l-3 327 -72 3 -71 3 -2 58 -2 57 69 0 69 0
0 105 c0 58 -3 105 -7 105 -5 -1 -29 -9 -54 -19z"/>
<path d="M6906 5778 c8 -107 12 -122 29 -108 8 6 19 9 25 5 15 -10 69 24 130
82 30 29 70 58 88 64 60 20 21 29 -128 29 l-149 0 5 -72z"/>
<path d="M7571 5766 c-38 -13 -54 -43 -49 -91 l3 -30 17 30 c9 17 30 45 47 62
45 47 42 51 -18 29z"/>
<path d="M7871 5763 c-36 -19 -45 -37 -56 -114 l-6 -47 -62 5 c-118 10 -185
-45 -194 -159 -3 -46 -2 -59 6 -48 9 12 11 9 12 -15 1 -28 1 -29 8 -6 11 41
32 -67 37 -194 9 -221 22 -299 60 -372 19 -36 45 -74 57 -84 87 -73 82 -71
185 -76 91 -5 103 -3 180 26 97 36 107 37 153 14 65 -32 181 -17 284 37 65 34
93 38 102 13 12 -30 64 -67 112 -80 53 -15 178 -16 236 -3 92 20 130 32 159
48 36 20 159 103 166 112 3 3 16 14 30 23 31 21 18 21 -62 1 -107 -28 -331 -8
-397 35 -9 6 -14 26 -13 57 1 68 -6 101 -23 101 -8 0 -15 -4 -15 -7 0 -4 -19
-13 -43 -19 -24 -6 -56 -20 -70 -31 -24 -19 -27 -28 -27 -82 l0 -60 -31 6
c-17 3 -62 6 -99 6 l-67 0 -7 62 -7 61 -47 -48 c-64 -65 -112 -87 -198 -93
-130 -8 -214 41 -268 157 -20 44 -21 65 -26 416 -6 409 -2 392 -69 358z"/>
<path d="M8405 5762 c-123 -53 -175 -101 -201 -187 -9 -31 -18 -123 -23 -245
-7 -176 -8 -215 -3 -272 1 -10 16 -33 33 -53 27 -30 37 -35 76 -35 25 0 57 7
73 16 33 20 76 84 92 139 16 51 18 647 3 651 -5 2 -28 -5 -50 -14z"/>
<path d="M7270 5763 c-14 -2 -59 -21 -100 -42 -94 -47 -141 -105 -165 -200
-13 -56 -15 -118 -12 -406 5 -385 10 -421 63 -462 31 -23 41 -25 102 -21 77 6
162 44 227 102 22 20 43 36 47 36 4 0 13 6 20 14 8 7 27 20 43 29 30 16 29 16
-57 18 -49 1 -94 2 -100 3 -10 1 -14 104 -18 465 -3 298 -9 465 -15 466 -5 1
-21 0 -35 -2z"/>
<path d="M8945 5758 c-66 -24 -189 -103 -228 -146 -25 -27 -41 -211 -32 -350
4 -57 9 -101 11 -99 2 2 21 -13 42 -32 21 -20 57 -42 81 -49 23 -7 45 -20 48
-28 3 -8 14 -14 25 -14 10 0 17 -4 14 -9 -7 -11 134 -67 191 -76 70 -11 147
11 182 51 26 29 31 43 31 86 0 46 -4 55 -39 88 -25 24 -72 50 -130 74 -51 20
-109 47 -131 61 -75 47 -119 129 -120 221 0 69 15 109 66 177 45 58 43 64 -11
45z"/>
<path d="M3072 5727 c-53 -10 -54 -11 -48 -40 3 -16 6 -40 6 -53 0 -30 16 -31
25 -3 4 12 27 41 52 65 24 24 38 43 31 43 -7 -1 -37 -6 -66 -12z"/>
<path d="M9970 5620 c0 -52 15 -65 40 -35 7 8 19 15 26 15 8 0 14 4 14 9 0 4
21 17 48 27 44 17 45 18 22 25 -14 4 -53 7 -87 8 l-63 1 0 -50z"/>
<path d="M3181 5623 c-14 -3 -35 -11 -47 -19 -96 -63 -130 -546 -48 -672 21
-32 79 -55 120 -47 19 3 47 17 64 32 68 57 94 156 94 358 1 174 -22 264 -79
314 -20 17 -40 31 -45 31 -4 0 -14 2 -22 4 -7 2 -24 1 -37 -1z"/>
<path d="M1261 5454 c0 -11 3 -14 6 -6 3 7 2 16 -1 19 -3 4 -6 -2 -5 -13z"/>
<path d="M5082 5271 c-93 -32 -151 -110 -152 -202 0 -90 35 -151 100 -170 44
-13 87 4 119 50 19 26 21 43 21 185 0 178 5 169 -88 137z"/>
<path d="M2310 5237 c-46 -15 -106 -77 -119 -124 -46 -164 49 -295 159 -220
43 28 47 47 52 214 l3 138 -30 2 c-16 1 -46 -4 -65 -10z"/>
<path d="M1420 5030 c-9 -6 -10 -10 -3 -10 6 0 15 5 18 10 8 12 4 12 -15 0z"/>
<path d="M190 4920 c0 -5 5 -10 10 -10 6 0 10 5 10 10 0 6 -4 10 -10 10 -5 0
-10 -4 -10 -10z"/>
<path d="M221 4801 c-10 -6 -10 -10 -1 -16 13 -8 24 -1 19 14 -3 6 -10 7 -18
2z"/>
<path d="M160 4765 c0 -11 -11 -15 -40 -15 -29 0 -40 -4 -40 -15 0 -8 7 -15
15 -15 11 0 15 -11 15 -40 0 -22 5 -40 10 -40 6 0 10 18 10 40 0 22 5 40 10
40 18 0 53 38 45 49 -9 16 -25 13 -25 -4z"/>
<path d="M226 4739 c-19 -19 -19 -19 23 -19 28 0 41 4 39 12 -8 22 -42 26 -62
7z"/>
<path d="M6908 4143 c6 -2 18 -2 25 0 6 3 1 5 -13 5 -14 0 -19 -2 -12 -5z"/>
<path d="M8522 4095 c-34 -7 -65 -15 -68 -18 -7 -7 127 -217 139 -217 4 0 7
54 7 119 0 66 -3 122 -7 124 -5 2 -36 -2 -71 -8z"/>
<path d="M7228 4093 c6 -2 18 -2 25 0 6 3 1 5 -13 5 -14 0 -19 -2 -12 -5z"/>
<path d="M7303 4093 c9 -2 23 -2 30 0 6 3 -1 5 -18 5 -16 0 -22 -2 -12 -5z"/>
<path d="M7745 4088 c-16 -5 -37 -12 -45 -15 -8 -4 -17 -7 -20 -7 -3 -1 -9 -4
-15 -7 -5 -3 -20 -4 -32 -3 -13 0 -23 -1 -23 -5 0 -13 85 -241 90 -241 9 0 82
248 78 267 -3 17 -7 19 -33 11z"/>
<path d="M9190 4080 c-24 -24 -25 -48 -4 -78 21 -30 40 -28 53 8 5 17 21 34
35 39 37 15 39 28 4 40 -45 16 -65 14 -88 -9z"/>
<path d="M4790 3993 c0 -5 -40 -7 -90 -5 l-90 3 0 -70 0 -71 60 0 c36 0 60 4
60 11 0 5 -5 7 -11 3 -20 -12 13 40 40 63 14 13 28 23 31 23 3 0 6 11 6 25 1
14 0 25 -2 25 -2 0 -4 -3 -4 -7z"/>
<path d="M4614 3796 c-3 -7 -4 -42 -2 -77 l3 -64 75 -2 c41 0 66 1 56 4 -31 8
-44 27 -48 68 -3 34 0 40 21 45 36 8 36 26 0 34 -52 10 -99 7 -105 -8z"/>
<path d="M3170 3110 c0 -5 7 -10 15 -10 8 0 15 5 15 10 0 6 -7 10 -15 10 -8 0
-15 -4 -15 -10z"/>
<path d="M2690 3036 c0 -2 7 -6 15 -10 8 -3 15 -1 15 4 0 6 -7 10 -15 10 -8 0
-15 -2 -15 -4z"/>
<path d="M2215 2890 c-3 -5 1 -10 9 -10 9 0 16 5 16 10 0 6 -4 10 -9 10 -6 0
-13 -4 -16 -10z"/>
<path d="M2450 2810 c0 -5 7 -10 15 -10 8 0 15 5 15 10 0 6 -7 10 -15 10 -8 0
-15 -4 -15 -10z"/>
<path d="M2538 2633 c7 -3 16 -2 19 1 4 3 -2 6 -13 5 -11 0 -14 -3 -6 -6z"/>
<path d="M2443 2593 c-58 -6 -60 -33 -3 -33 22 0 40 5 40 10 0 6 7 10 15 10 8
0 15 5 15 10 0 6 -6 9 -12 8 -7 -1 -32 -3 -55 -5z"/>
<path d="M2335 2540 c-3 -6 1 -13 9 -16 21 -8 49 3 41 16 -8 13 -42 13 -50 0z"/>
<path d="M2640 2495 c0 -8 5 -15 10 -15 6 0 10 7 10 15 0 8 -4 15 -10 15 -5 0
-10 -7 -10 -15z"/>
<path d="M2340 2490 c-11 -7 -6 -10 20 -10 26 0 31 3 20 10 -8 5 -17 10 -20
10 -3 0 -12 -5 -20 -10z"/>
<path d="M2400 2464 c0 -17 22 -14 28 4 2 7 -3 12 -12 12 -9 0 -16 -7 -16 -16z"/>
<path d="M2580 2351 c-15 -28 -13 -31 20 -31 17 0 30 3 30 6 0 12 -21 44 -30
44 -5 0 -14 -9 -20 -19z"/>
<path d="M3040 2015 c0 -8 7 -15 16 -15 14 0 14 3 4 15 -7 8 -14 15 -16 15 -2
0 -4 -7 -4 -15z"/>
<path d="M2880 1946 c0 -17 5 -26 16 -26 10 0 14 7 12 22 -5 32 -28 35 -28 4z"/>
<path d="M3201 1914 c0 -11 3 -14 6 -6 3 7 2 16 -1 19 -3 4 -6 -2 -5 -13z"/>
<path d="M2940 1910 c-8 -5 -25 -10 -37 -10 -14 0 -23 -6 -23 -16 0 -12 5 -14
18 -9 9 4 27 10 40 12 12 3 22 12 22 19 0 16 -1 17 -20 4z"/>
<path d="M3012 1908 c6 -18 28 -21 28 -4 0 9 -7 16 -16 16 -9 0 -14 -5 -12
-12z"/>
<path d="M3245 1910 c3 -5 8 -10 11 -10 2 0 4 5 4 10 0 6 -5 10 -11 10 -5 0
-7 -4 -4 -10z"/>
<path d="M3298 1863 c12 -2 32 -2 45 0 12 2 2 4 -23 4 -25 0 -35 -2 -22 -4z"/>
<path d="M3245 1850 c-3 -5 -1 -10 4 -10 6 0 11 5 11 10 0 6 -2 10 -4 10 -3 0
-8 -4 -11 -10z"/>
<path d="M3040 1824 c0 -9 5 -14 12 -12 18 6 21 28 4 28 -9 0 -16 -7 -16 -16z"/>
<path d="M3097 1783 c-12 -11 -8 -23 8 -23 8 0 15 7 15 15 0 16 -12 20 -23 8z"/>
<path d="M3200 1616 c0 -8 -6 -16 -12 -19 -10 -4 -10 -7 0 -18 10 -11 12 -10
12 4 0 25 80 25 80 0 1 -17 1 -17 14 0 7 9 19 17 26 17 7 0 19 -8 26 -17 12
-16 13 -15 14 15 l0 32 -80 0 c-62 0 -80 -3 -80 -14z"/>
<path d="M3147 1544 c-13 -13 -7 -24 14 -24 11 0 19 5 17 12 -5 14 -22 21 -31
12z"/>
<path d="M3307 1544 c-13 -13 -7 -24 14 -24 11 0 19 5 17 12 -5 14 -22 21 -31
12z"/>
<path d="M3660 1370 c-13 -8 -12 -10 3 -10 9 0 17 5 17 10 0 12 -1 12 -20 0z"/>
<path d="M3520 1295 c0 -11 11 -15 40 -15 29 0 40 4 40 15 0 11 -11 15 -40 15
-29 0 -40 -4 -40 -15z"/>
<path d="M3680 1295 c0 -11 11 -15 40 -15 29 0 40 4 40 15 0 11 -11 15 -40 15
-29 0 -40 -4 -40 -15z"/>
<path d="M3330 1240 c0 -29 4 -40 15 -40 11 0 15 11 15 40 0 29 -4 40 -15 40
-11 0 -15 -11 -15 -40z"/>
<path d="M3920 1029 c0 -5 5 -7 10 -4 6 3 10 8 10 11 0 2 -4 4 -10 4 -5 0 -10
-5 -10 -11z"/>
<path d="M3950 1000 c0 -5 5 -10 10 -10 6 0 10 5 10 10 0 6 -4 10 -10 10 -5 0
-10 -4 -10 -10z"/>
<path d="M3920 970 c0 -5 5 -10 11 -10 5 0 7 5 4 10 -3 6 -8 10 -11 10 -2 0
-4 -4 -4 -10z"/>
<path d="M3950 945 c0 -8 5 -15 10 -15 6 0 10 7 10 15 0 8 -4 15 -10 15 -5 0
-10 -7 -10 -15z"/>
<path d="M4055 870 c3 -5 10 -10 16 -10 5 0 9 5 9 10 0 6 -7 10 -16 10 -8 0
-12 -4 -9 -10z"/>
<path d="M4000 840 c0 -13 5 -20 13 -17 6 2 12 10 12 17 0 7 -6 15 -12 18 -8
2 -13 -5 -13 -18z"/>
<path d="M4055 810 c-3 -5 1 -10 9 -10 9 0 16 5 16 10 0 6 -4 10 -9 10 -6 0
-13 -4 -16 -10z"/>
<path d="M4020 591 c-15 -28 -13 -31 20 -31 17 0 30 3 30 6 0 12 -21 44 -30
44 -5 0 -14 -9 -20 -19z"/>
<path d="M4150 601 c0 -10 19 -25 25 -20 1 2 -3 10 -11 17 -8 7 -14 8 -14 3z"/>
<path d="M4350 520 c0 -5 5 -10 10 -10 6 0 10 5 10 10 0 6 -4 10 -10 10 -5 0
-10 -4 -10 -10z"/>
<path d="M4240 290 c0 -5 18 -10 40 -10 22 0 40 5 40 10 0 6 -18 10 -40 10
-22 0 -40 -4 -40 -10z"/>
<path d="M4576 145 c4 -8 8 -15 10 -15 2 0 4 7 4 15 0 8 -4 15 -10 15 -5 0 -7
-7 -4 -15z"/>
<path d="M4561 94 c0 -11 3 -14 6 -6 3 7 2 16 -1 19 -3 4 -6 -2 -5 -13z"/>
<path d="M4605 100 c-8 -13 -1 -24 14 -19 6 3 7 10 2 18 -6 10 -10 10 -16 1z"/>
</g>
</svg>
